# xmcd CD database file
#
# Track frame offsets:
#	150
#	15367
#	34365
#	52662
#	73437
#	87900
#	101150
#	119817
#	136737
#	159507
#	177725
#	192535
#	209567
#	224782
#	243102
#	257547
#	273685
#	292072
#	306880
#
# Disc length: 4316 seconds
#
# Revision: 0
# Processed by: cddbd v1.5.1PL0 Copyright (c) Steve Scherf et al.
# Submitted via: CDex 1.51
#
DISCID=3210da13
DTITLE=Various Artist - 超獣戦隊ライブマン COMPLETE SONG COLLECTION
DYEAR=1997
DGENRE=Anime
TTITLE0=嶋大輔/超獣戦隊ライブマン
TTITLE1=茅弘二/進め！ライブマーチ
TTITLE2=茅弘二/Knock！熱狂のライブ
TTITLE3=嶋大輔/美しきドリーマー
TTITLE4=茅弘二/ダッシュ！ライブロボ
TTITLE5=茅弘二、こおろぎ’７３、SHINES/正義は不滅さ、ライブマン
TTITLE6=森恵/スパーク！海へ
TTITLE7=茅弘二/ライブ・センチュリー〜俺達の新世紀〜
TTITLE8=高坂真琴/ホップ・ステップ・ラブジャンプ！
TTITLE9=嶋大輔/あしたにに生きるぜ！
TTITLE10=茅弘二、SHINES/負けん気満点！ライブマン
TTITLE11=茅弘二/ライブボクサーの歌
TTITLE12=超獣戦隊ライブマン（オリジナル・カラオケ）
TTITLE13=Knock！熱狂のライブ（オリジナル・カラオケ）
TTITLE14=ダッシュ！ライブロボ（オリジナル・カラオケ）
TTITLE15=スパーク！海へ（オリジナル・カラオケ）
TTITLE16=あしたに生きるぜ！（オリジナル・カラオケ）
TTITLE17=負けん気満点！ライブマン（オリジナル・カラオケ）
TTITLE18=ライブボクサーの歌（オリジナル・カラオケ）
EXTD=YEAR: 1997
EXTT0=
EXTT1=
EXTT2=
EXTT3=
EXTT4=
EXTT5=
EXTT6=
EXTT7=
EXTT8=
EXTT9=
EXTT10=
EXTT11=
EXTT12=
EXTT13=
EXTT14=
EXTT15=
EXTT16=
EXTT17=
EXTT18=
PLAYORDER=
